<mxfile host="app.diagrams.net" modified="2024-01-31T14:24:53.358Z" agent="Mozilla/5.0 (X11; Linux x86_64) AppleWebKit/537.36 (KHTML, like Gecko) Chrome/121.0.0.0 Safari/537.36" etag="x2OazusFeBuHWqy6T0jv" version="23.0.2" type="device">
  <diagram name="Page-1" id="lnzYh57Ae7wXPAFjIW1_">
    <mxGraphModel dx="1434" dy="754" grid="1" gridSize="10" guides="1" tooltips="1" connect="1" arrows="1" fold="1" page="1" pageScale="1" pageWidth="850" pageHeight="1100" math="0" shadow="0">
      <root>
        <mxCell id="0" />
        <mxCell id="1" parent="0" />
        <mxCell id="F5T6QQpMI-8VUbEXzopP-10" value="" style="edgeStyle=orthogonalEdgeStyle;rounded=0;orthogonalLoop=1;jettySize=auto;html=1;" edge="1" parent="1" source="F5T6QQpMI-8VUbEXzopP-2" target="F5T6QQpMI-8VUbEXzopP-9">
          <mxGeometry relative="1" as="geometry" />
        </mxCell>
        <mxCell id="F5T6QQpMI-8VUbEXzopP-2" value="可信資料來源1" style="shape=cylinder3;whiteSpace=wrap;html=1;boundedLbl=1;backgroundOutline=1;size=15;fillColor=#fff2cc;strokeColor=#d6b656;" vertex="1" parent="1">
          <mxGeometry x="60" y="70" width="60" height="80" as="geometry" />
        </mxCell>
        <mxCell id="F5T6QQpMI-8VUbEXzopP-3" value="可信資料來源2" style="shape=cylinder3;whiteSpace=wrap;html=1;boundedLbl=1;backgroundOutline=1;size=15;fillColor=#fff2cc;strokeColor=#d6b656;" vertex="1" parent="1">
          <mxGeometry x="60" y="170" width="60" height="80" as="geometry" />
        </mxCell>
        <mxCell id="F5T6QQpMI-8VUbEXzopP-12" style="edgeStyle=orthogonalEdgeStyle;rounded=0;orthogonalLoop=1;jettySize=auto;html=1;entryX=0.5;entryY=1;entryDx=0;entryDy=0;" edge="1" parent="1" source="F5T6QQpMI-8VUbEXzopP-4" target="F5T6QQpMI-8VUbEXzopP-9">
          <mxGeometry relative="1" as="geometry" />
        </mxCell>
        <mxCell id="F5T6QQpMI-8VUbEXzopP-4" value="可信資料來源n" style="shape=cylinder3;whiteSpace=wrap;html=1;boundedLbl=1;backgroundOutline=1;size=15;fillColor=#fff2cc;strokeColor=#d6b656;" vertex="1" parent="1">
          <mxGeometry x="60" y="320" width="60" height="80" as="geometry" />
        </mxCell>
        <mxCell id="F5T6QQpMI-8VUbEXzopP-6" value="" style="endArrow=none;dashed=1;html=1;dashPattern=1 3;strokeWidth=2;rounded=0;" edge="1" parent="1">
          <mxGeometry width="50" height="50" relative="1" as="geometry">
            <mxPoint x="89.5" y="310" as="sourcePoint" />
            <mxPoint x="89.5" y="260" as="targetPoint" />
          </mxGeometry>
        </mxCell>
        <mxCell id="F5T6QQpMI-8VUbEXzopP-14" value="" style="edgeStyle=orthogonalEdgeStyle;rounded=0;orthogonalLoop=1;jettySize=auto;html=1;" edge="1" parent="1" source="F5T6QQpMI-8VUbEXzopP-9" target="F5T6QQpMI-8VUbEXzopP-13">
          <mxGeometry relative="1" as="geometry" />
        </mxCell>
        <mxCell id="F5T6QQpMI-8VUbEXzopP-9" value="人工處理成問答形式" style="rounded=1;whiteSpace=wrap;html=1;fillColor=#dae8fc;strokeColor=#6c8ebf;" vertex="1" parent="1">
          <mxGeometry x="220" y="180" width="120" height="60" as="geometry" />
        </mxCell>
        <mxCell id="F5T6QQpMI-8VUbEXzopP-11" style="edgeStyle=orthogonalEdgeStyle;rounded=0;orthogonalLoop=1;jettySize=auto;html=1;exitX=1;exitY=0.5;exitDx=0;exitDy=0;exitPerimeter=0;entryX=-0.083;entryY=0.5;entryDx=0;entryDy=0;entryPerimeter=0;" edge="1" parent="1" source="F5T6QQpMI-8VUbEXzopP-3" target="F5T6QQpMI-8VUbEXzopP-9">
          <mxGeometry relative="1" as="geometry" />
        </mxCell>
        <mxCell id="F5T6QQpMI-8VUbEXzopP-13" value="train/valid.json" style="shape=document;whiteSpace=wrap;html=1;boundedLbl=1;rounded=1;fillColor=#e1d5e7;strokeColor=#9673a6;" vertex="1" parent="1">
          <mxGeometry x="420" y="170" width="120" height="80" as="geometry" />
        </mxCell>
        <mxCell id="F5T6QQpMI-8VUbEXzopP-18" style="edgeStyle=orthogonalEdgeStyle;rounded=0;orthogonalLoop=1;jettySize=auto;html=1;entryX=0;entryY=0.5;entryDx=0;entryDy=0;" edge="1" parent="1" source="F5T6QQpMI-8VUbEXzopP-15">
          <mxGeometry relative="1" as="geometry">
            <mxPoint x="240" y="500" as="targetPoint" />
          </mxGeometry>
        </mxCell>
        <mxCell id="F5T6QQpMI-8VUbEXzopP-15" value="TurstfulQA&lt;br&gt;(hugging face)" style="shape=cylinder3;whiteSpace=wrap;html=1;boundedLbl=1;backgroundOutline=1;size=15;fillColor=#fff2cc;strokeColor=#d6b656;" vertex="1" parent="1">
          <mxGeometry x="60" y="460" width="90" height="80" as="geometry" />
        </mxCell>
        <mxCell id="F5T6QQpMI-8VUbEXzopP-21" value="" style="edgeStyle=orthogonalEdgeStyle;rounded=0;orthogonalLoop=1;jettySize=auto;html=1;" edge="1" parent="1" source="F5T6QQpMI-8VUbEXzopP-19" target="F5T6QQpMI-8VUbEXzopP-20">
          <mxGeometry relative="1" as="geometry" />
        </mxCell>
        <mxCell id="F5T6QQpMI-8VUbEXzopP-19" value="" style="editableCssRules=.*;html=1;shape=image;verticalLabelPosition=bottom;labelBackgroundColor=#ffffff;verticalAlign=top;aspect=fixed;imageAspect=0;image=data:image/svg+xml,PHN2ZyB4bWxucz0iaHR0cDovL3d3dy53My5vcmcvMjAwMC9zdmciIHhtbG5zOnY9Imh0dHBzOi8vdmVjdGEuaW8vbmFubyIgd2lkdGg9IjIwIiBoZWlnaHQ9IjE4IiB2aWV3Qm94PSIwIDAgMjAgMTgiPiYjeGE7CTxzdHlsZSB0eXBlPSJ0ZXh0L2NzcyI+JiN4YTsJLnN0MHtmaWxsOiM0Mjg1ZjQ7fSYjeGE7CS5zdDF7ZmlsbDojNjY5ZGY2O2ZpbGwtcnVsZTpldmVub2RkfSYjeGE7CTwvc3R5bGU+JiN4YTsJPHBhdGggY2xhc3M9InN0MCIgZD0iTTE1LjkxIDcuMmgtMS44MkwxMCAxOGgxLjgybDEtMi43aDQuMzJsMSAyLjdIMjB6bS0yLjM5IDYuM0wxNSA5LjZsMS40OCAzLjl6Ii8+JiN4YTsJPHBhdGggY2xhc3M9InN0MSIgZD0iTTEwLjc5IDExLjc3TDguNDggOS41MWgwYTE1LjYyIDE1LjYyIDAgMCAwIDMuNC01LjkxaDIuNjdWMS44SDguMThWMEg2LjM2djEuOEgwdjEuNzloMTAuMTVhMTQuMDYgMTQuMDYgMCAwIDEtMi44OCA0LjgyIDE0LjU1IDE0LjU1IDAgMCAxLTIuMS0zSDMuMzVhMTYgMTYgMCAwIDAgMi43MSA0LjFMMS40NCAxNGwxLjI5IDEuMyA0LjU0LTQuNSAyLjgzIDIuOHoiLz4mI3hhOzwvc3ZnPg==;" vertex="1" parent="1">
          <mxGeometry x="240" y="454" width="106.67" height="96" as="geometry" />
        </mxCell>
        <mxCell id="F5T6QQpMI-8VUbEXzopP-20" value="TQAZH.csv" style="shape=document;whiteSpace=wrap;html=1;boundedLbl=1;verticalAlign=middle;labelBackgroundColor=#ffffff;fillColor=#e1d5e7;strokeColor=#9673a6;" vertex="1" parent="1">
          <mxGeometry x="420.005" y="462" width="120" height="80" as="geometry" />
        </mxCell>
        <mxCell id="F5T6QQpMI-8VUbEXzopP-24" value="" style="edgeStyle=orthogonalEdgeStyle;rounded=0;orthogonalLoop=1;jettySize=auto;html=1;" edge="1" parent="1" source="F5T6QQpMI-8VUbEXzopP-22" target="F5T6QQpMI-8VUbEXzopP-23">
          <mxGeometry relative="1" as="geometry" />
        </mxCell>
        <mxCell id="F5T6QQpMI-8VUbEXzopP-22" value="撰寫意識測試" style="rounded=1;whiteSpace=wrap;html=1;fillColor=#dae8fc;strokeColor=#6c8ebf;" vertex="1" parent="1">
          <mxGeometry x="220" y="610" width="120" height="60" as="geometry" />
        </mxCell>
        <mxCell id="F5T6QQpMI-8VUbEXzopP-23" value="CT.csv" style="shape=document;whiteSpace=wrap;html=1;boundedLbl=1;rounded=1;fillColor=#e1d5e7;strokeColor=#9673a6;" vertex="1" parent="1">
          <mxGeometry x="425" y="600" width="120" height="80" as="geometry" />
        </mxCell>
      </root>
    </mxGraphModel>
  </diagram>
</mxfile>
